<svg width="223" height="34" viewBox="0 0 223 34" fill="none" xmlns="http://www.w3.org/2000/svg">
<g clip-path="url(#clip0_138_1217)">
<path d="M39.4055 25.5V25.1373L41.3169 24.208V11.832L39.4055 10.9027V10.54H47.0737C48.8577 10.54 50.3718 10.8347 51.6161 11.424C52.8604 12.0133 53.8049 12.8218 54.4495 13.8493C55.1092 14.8769 55.439 16.0404 55.439 17.34C55.439 18.5187 55.2216 19.6067 54.7868 20.604C54.3671 21.6013 53.7749 22.4627 53.0103 23.188C52.2458 23.9133 51.3463 24.48 50.3118 24.888C49.2774 25.296 48.1456 25.5 46.9162 25.5H39.4055ZM46.1517 11.7867H44.7125V24.2533H46.4665C48.2055 24.2533 49.5473 23.6942 50.4917 22.576C51.4362 21.4427 51.9085 19.9316 51.9085 18.0427C51.9085 16.1387 51.4212 14.62 50.4468 13.4867C49.4873 12.3533 48.0556 11.7867 46.1517 11.7867ZM55.6134 25.5V25.1373L57.0976 24.412V17.6573L55.6809 16.592V16.32L59.7736 14.9373H60.0435L60.2458 16.9773H60.3583C60.7181 16.4031 61.0404 15.9724 61.3252 15.6853C61.6101 15.3831 61.8799 15.1867 62.1348 15.096C62.3896 14.9902 62.667 14.9373 62.9668 14.9373C63.0867 14.9373 63.2217 14.96 63.3716 15.0053C63.5365 15.0356 63.6789 15.0733 63.7988 15.1187C64.2486 15.2547 64.4735 15.4662 64.4735 15.7533C64.4735 15.8893 64.4435 16.0178 64.3835 16.1387L63.8438 17.612H63.6864L63.1017 17.408C62.712 17.272 62.3147 17.204 61.9099 17.204C61.2803 17.204 60.7331 17.4987 60.2683 18.088V24.412L62.0898 25.1373V25.5H55.6134ZM66.3334 25.704C65.5988 25.704 64.9691 25.4849 64.4444 25.0467C63.9197 24.5933 63.6724 23.9436 63.7023 23.0973C63.7023 22.5533 63.8073 22.0924 64.0172 21.7147C64.227 21.3218 64.5943 20.9818 65.119 20.6947C65.6437 20.4076 66.3783 20.1431 67.3228 19.9013L69.4366 19.38V17.9747C69.4366 17.4004 69.2642 16.9396 68.9194 16.592C68.5746 16.2444 68.1324 16.0707 67.5927 16.0707C67.1129 16.0707 66.7681 16.1764 66.5582 16.388C66.3484 16.5996 66.2434 16.9169 66.2434 17.34V18.3827L66.1535 18.4733H64.6693C64.4444 18.4733 64.287 18.4204 64.1971 18.3147C64.1071 18.2089 64.0621 18.0276 64.0621 17.7707C64.0621 17.4382 64.1896 17.1133 64.4444 16.796C64.7143 16.4787 65.0666 16.184 65.5013 15.912C66.041 15.5644 66.5432 15.3151 67.008 15.164C67.4877 15.0129 68.0049 14.9373 68.5596 14.9373C69.2942 14.9373 69.9688 15.0356 70.5835 15.232C71.1981 15.4284 71.6854 15.7458 72.0453 16.184C72.4199 16.6071 72.6073 17.1587 72.6073 17.8387V23.8227C72.8472 24.0644 73.207 24.1853 73.6867 24.1853H74.339L74.4064 24.2533V24.5707C74.2414 24.8578 73.9566 25.1222 73.5519 25.364C73.162 25.6058 72.6523 25.7267 72.0227 25.7267C71.393 25.7267 70.8758 25.5982 70.471 25.3413C70.0813 25.0693 69.7814 24.684 69.5715 24.1853H69.4366C69.0618 24.6084 68.6121 24.9711 68.0874 25.2733C67.5627 25.5604 66.978 25.704 66.3334 25.704ZM66.6707 22.4627C66.6707 22.9462 66.7981 23.3089 67.053 23.5507C67.3228 23.7773 67.6901 23.8907 68.1548 23.8907C68.5596 23.8907 68.9869 23.8 69.4366 23.6187V20.2867C68.687 20.4529 68.1099 20.6342 67.7051 20.8307C67.3153 21.0271 67.0455 21.2538 66.8956 21.5107C66.7456 21.7676 66.6707 22.0849 66.6707 22.4627ZM75.9282 25.6133C75.4784 25.6133 75.0886 25.4471 74.7588 25.1147C74.429 24.7822 74.2641 24.3893 74.2641 23.936C74.2641 23.4676 74.429 23.0671 74.7588 22.7347C75.0886 22.4022 75.4784 22.236 75.9282 22.236C76.3779 22.236 76.7677 22.4022 77.0975 22.7347C77.4273 23.0671 77.5922 23.4676 77.5922 23.936C77.5922 24.3893 77.4273 24.7822 77.0975 25.1147C76.7677 25.4471 76.3779 25.6133 75.9282 25.6133ZM82.395 25.5V25.1373L84.3064 24.208V11.832L82.395 10.9027V10.54H90.1756C91.9446 10.54 93.3613 10.8649 94.4256 11.5147C95.505 12.1493 96.0446 13.1693 96.0446 14.5747C96.0446 15.4209 95.7598 16.1689 95.1901 16.8187C94.6354 17.4533 93.8784 17.952 92.9191 18.3147C91.9596 18.6622 90.8652 18.836 89.6359 18.836H87.702V24.208L89.9957 25.1373V25.5H82.395ZM87.702 11.7867V17.7253H88.7814C89.9807 17.7253 90.9177 17.4458 91.5923 16.8867C92.2669 16.3276 92.6043 15.6249 92.6043 14.7787C92.6043 13.7209 92.2595 12.9578 91.5698 12.4893C90.8802 12.0209 89.9058 11.7867 88.6465 11.7867H87.702ZM98.2915 25.704C97.5569 25.704 96.9273 25.4849 96.4026 25.0467C95.8779 24.5933 95.6305 23.9436 95.6605 23.0973C95.6605 22.5533 95.7654 22.0924 95.9753 21.7147C96.1852 21.3218 96.5525 20.9818 97.0772 20.6947C97.6019 20.4076 98.3365 20.1431 99.281 19.9013L101.395 19.38V17.9747C101.395 17.4004 101.222 16.9396 100.878 16.592C100.533 16.2444 100.091 16.0707 99.5508 16.0707C99.0711 16.0707 98.7263 16.1764 98.5164 16.388C98.3065 16.5996 98.2016 16.9169 98.2016 17.34V18.3827L98.1116 18.4733H96.6274C96.4026 18.4733 96.2452 18.4204 96.1552 18.3147C96.0653 18.2089 96.0203 18.0276 96.0203 17.7707C96.0203 17.4382 96.1477 17.1133 96.4026 16.796C96.6724 16.4787 97.0247 16.184 97.4595 15.912C97.9992 15.5644 98.5014 15.3151 98.9661 15.164C99.4459 15.0129 99.9631 14.9373 100.518 14.9373C101.252 14.9373 101.927 15.0356 102.542 15.232C103.156 15.4284 103.644 15.7458 104.003 16.184C104.378 16.6071 104.565 17.1587 104.565 17.8387V23.8227C104.805 24.0644 105.165 24.1853 105.645 24.1853H106.297L106.364 24.2533V24.5707C106.2 24.8578 105.915 25.1222 105.51 25.364C105.12 25.6058 104.61 25.7267 103.981 25.7267C103.351 25.7267 102.834 25.5982 102.429 25.3413C102.039 25.0693 101.74 24.684 101.53 24.1853H101.395C101.02 24.6084 100.57 24.9711 100.046 25.2733C99.5208 25.5604 98.9362 25.704 98.2915 25.704ZM98.6288 22.4627C98.6288 22.9462 98.7563 23.3089 99.0111 23.5507C99.281 23.7773 99.6483 23.8907 100.113 23.8907C100.518 23.8907 100.945 23.8 101.395 23.6187V20.2867C100.645 20.4529 100.068 20.6342 99.6632 20.8307C99.2735 21.0271 99.0036 21.2538 98.8537 21.5107C98.7038 21.7676 98.6288 22.0849 98.6288 22.4627ZM109.843 25.7267C108.928 25.7267 108.178 25.5302 107.594 25.1373C107.009 24.7444 106.717 24.1929 106.717 23.4827V16.184H105.098V15.8667L107.167 15.164L109.438 12.6707H109.865V15.164H112.991V16.184H109.865V22.916C109.865 23.3089 110.03 23.596 110.36 23.7773C110.69 23.9587 111.079 24.0493 111.529 24.0493C111.814 24.0493 112.061 24.0342 112.271 24.004C112.496 23.9587 112.713 23.9133 112.923 23.868L112.991 23.9133V24.2987C112.736 24.6613 112.324 24.9938 111.754 25.296C111.184 25.5831 110.547 25.7267 109.843 25.7267ZM112.803 25.5V25.1373L114.288 24.412V17.6573L112.871 16.592V16.32L116.964 14.9373H117.233L117.436 16.9773H117.548C117.908 16.4031 118.23 15.9724 118.515 15.6853C118.8 15.3831 119.07 15.1867 119.325 15.096C119.58 14.9902 119.857 14.9373 120.157 14.9373C120.277 14.9373 120.412 14.96 120.562 15.0053C120.726 15.0356 120.869 15.0733 120.989 15.1187C121.439 15.2547 121.663 15.4662 121.663 15.7533C121.663 15.8893 121.633 16.0178 121.573 16.1387L121.034 17.612H120.876L120.292 17.408C119.902 17.272 119.505 17.204 119.1 17.204C118.47 17.204 117.923 17.4987 117.458 18.088V24.412L119.28 25.1373V25.5H112.803ZM123.818 12.6933C123.338 12.6933 122.941 12.5422 122.626 12.24C122.326 11.9227 122.176 11.5298 122.176 11.0613C122.176 10.5778 122.326 10.1849 122.626 9.88267C122.941 9.56533 123.338 9.40667 123.818 9.40667C124.297 9.40667 124.687 9.56533 124.987 9.88267C125.302 10.1849 125.459 10.5778 125.459 11.0613C125.459 11.5298 125.302 11.9227 124.987 12.24C124.687 12.5422 124.297 12.6933 123.818 12.6933ZM120.782 25.5V25.1373L122.288 24.412V17.5213L120.849 16.456V16.184L125.189 14.9373H125.459V24.412L126.786 25.1373V25.5H120.782ZM131.667 25.7267C130.707 25.7267 129.86 25.5227 129.125 25.1147C128.391 24.7067 127.821 24.1324 127.416 23.392C127.012 22.6516 126.809 21.7902 126.809 20.808C126.809 19.6596 127.042 18.6471 127.506 17.7707C127.986 16.8791 128.646 16.184 129.485 15.6853C130.34 15.1867 131.329 14.9373 132.454 14.9373C133.158 14.9373 133.795 15.0356 134.365 15.232C134.935 15.4284 135.362 15.7004 135.647 16.048C135.887 16.3351 136.007 16.5618 136.007 16.728C136.007 16.9093 135.909 17.0907 135.714 17.272L134.657 18.1787H134.5L133.713 17.068C133.458 16.7204 133.203 16.4484 132.948 16.252C132.693 16.0404 132.356 15.9347 131.936 15.9347C131.247 15.9347 130.722 16.2822 130.362 16.9773C130.017 17.6573 129.845 18.5716 129.845 19.72C129.845 20.3698 129.958 20.9667 130.182 21.5107C130.407 22.0547 130.76 22.4853 131.239 22.8027C131.734 23.12 132.371 23.2787 133.151 23.2787C133.57 23.2787 134.02 23.2258 134.5 23.12C134.98 23.0142 135.474 22.8329 135.984 22.576H136.052V22.9387C135.677 23.7396 135.107 24.4044 134.343 24.9333C133.593 25.4622 132.701 25.7267 131.667 25.7267ZM139.051 12.6933C138.571 12.6933 138.174 12.5422 137.859 12.24C137.559 11.9227 137.409 11.5298 137.409 11.0613C137.409 10.5778 137.559 10.1849 137.859 9.88267C138.174 9.56533 138.571 9.40667 139.051 9.40667C139.531 9.40667 139.92 9.56533 140.22 9.88267C140.535 10.1849 140.692 10.5778 140.692 11.0613C140.692 11.5298 140.535 11.9227 140.22 12.24C139.92 12.5422 139.531 12.6933 139.051 12.6933ZM136.015 25.5V25.1373L137.522 24.412V17.5213L136.083 16.456V16.184L140.423 14.9373H140.692V24.412L142.019 25.1373V25.5H136.015ZM144.583 25.704C143.848 25.704 143.219 25.4849 142.694 25.0467C142.169 24.5933 141.922 23.9436 141.952 23.0973C141.952 22.5533 142.057 22.0924 142.267 21.7147C142.476 21.3218 142.844 20.9818 143.368 20.6947C143.893 20.4076 144.628 20.1431 145.572 19.9013L147.686 19.38V17.9747C147.686 17.4004 147.514 16.9396 147.169 16.592C146.824 16.2444 146.382 16.0707 145.842 16.0707C145.362 16.0707 145.018 16.1764 144.808 16.388C144.598 16.5996 144.493 16.9169 144.493 17.34V18.3827L144.403 18.4733H142.919C142.694 18.4733 142.536 18.4204 142.446 18.3147C142.356 18.2089 142.312 18.0276 142.312 17.7707C142.312 17.4382 142.439 17.1133 142.694 16.796C142.964 16.4787 143.316 16.184 143.751 15.912C144.29 15.5644 144.793 15.3151 145.257 15.164C145.737 15.0129 146.254 14.9373 146.809 14.9373C147.544 14.9373 148.218 15.0356 148.833 15.232C149.448 15.4284 149.935 15.7458 150.295 16.184C150.669 16.6071 150.857 17.1587 150.857 17.8387V23.8227C151.097 24.0644 151.456 24.1853 151.936 24.1853H152.588L152.656 24.2533V24.5707C152.491 24.8578 152.206 25.1222 151.801 25.364C151.411 25.6058 150.902 25.7267 150.272 25.7267C149.642 25.7267 149.125 25.5982 148.72 25.3413C148.331 25.0693 148.031 24.684 147.821 24.1853H147.686C147.311 24.6084 146.861 24.9711 146.337 25.2733C145.812 25.5604 145.227 25.704 144.583 25.704ZM144.92 22.4627C144.92 22.9462 145.048 23.3089 145.302 23.5507C145.572 23.7773 145.939 23.8907 146.404 23.8907C146.809 23.8907 147.236 23.8 147.686 23.6187V20.2867C146.936 20.4529 146.359 20.6342 145.954 20.8307C145.565 21.0271 145.295 21.2538 145.145 21.5107C144.995 21.7676 144.92 22.0849 144.92 22.4627ZM164.184 25.7267C162.61 25.7267 161.231 25.4018 160.047 24.752C158.862 24.1022 157.94 23.2258 157.281 22.1227C156.636 21.0044 156.314 19.7427 156.314 18.3373C156.314 17.204 156.539 16.1538 156.988 15.1867C157.438 14.2196 158.045 13.3733 158.81 12.648C159.589 11.9076 160.466 11.3333 161.441 10.9253C162.43 10.5173 163.465 10.3133 164.544 10.3133C165.339 10.3133 165.998 10.3587 166.523 10.4493C167.048 10.54 167.52 10.6684 167.94 10.8347C168.359 11.0009 168.779 11.1898 169.199 11.4013L169.446 15.64H169.042L166.905 12.1267C166.53 11.8849 166.178 11.7111 165.848 11.6053C165.519 11.4996 165.121 11.4467 164.657 11.4467C163.742 11.4467 162.917 11.7262 162.183 12.2853C161.463 12.8293 160.894 13.6076 160.474 14.62C160.054 15.6173 159.844 16.7809 159.844 18.1107C159.844 19.4253 160.047 20.5662 160.451 21.5333C160.856 22.4853 161.403 23.2258 162.093 23.7547C162.798 24.2684 163.585 24.5253 164.454 24.5253C165.009 24.5253 165.504 24.4573 165.938 24.3213C166.388 24.1702 166.815 23.9813 167.22 23.7547L169.244 20.7173H169.626L169.311 24.548C168.697 24.9107 167.955 25.1978 167.085 25.4093C166.231 25.6209 165.264 25.7267 164.184 25.7267ZM173.02 25.704C172.285 25.704 171.656 25.4849 171.131 25.0467C170.606 24.5933 170.359 23.9436 170.389 23.0973C170.389 22.5533 170.494 22.0924 170.704 21.7147C170.914 21.3218 171.281 20.9818 171.806 20.6947C172.33 20.4076 173.065 20.1431 174.009 19.9013L176.123 19.38V17.9747C176.123 17.4004 175.951 16.9396 175.606 16.592C175.261 16.2444 174.819 16.0707 174.279 16.0707C173.799 16.0707 173.455 16.1764 173.245 16.388C173.035 16.5996 172.93 16.9169 172.93 17.34V18.3827L172.84 18.4733H171.356C171.131 18.4733 170.974 18.4204 170.884 18.3147C170.794 18.2089 170.749 18.0276 170.749 17.7707C170.749 17.4382 170.876 17.1133 171.131 16.796C171.401 16.4787 171.753 16.184 172.188 15.912C172.728 15.5644 173.23 15.3151 173.695 15.164C174.174 15.0129 174.691 14.9373 175.246 14.9373C175.981 14.9373 176.655 15.0356 177.27 15.232C177.885 15.4284 178.372 15.7458 178.732 16.184C179.107 16.6071 179.294 17.1587 179.294 17.8387V23.8227C179.534 24.0644 179.894 24.1853 180.373 24.1853H181.025L181.093 24.2533V24.5707C180.928 24.8578 180.643 25.1222 180.238 25.364C179.849 25.6058 179.339 25.7267 178.709 25.7267C178.08 25.7267 177.562 25.5982 177.158 25.3413C176.768 25.0693 176.468 24.684 176.258 24.1853H176.123C175.748 24.6084 175.299 24.9711 174.774 25.2733C174.249 25.5604 173.665 25.704 173.02 25.704ZM173.357 22.4627C173.357 22.9462 173.485 23.3089 173.74 23.5507C174.009 23.7773 174.377 23.8907 174.841 23.8907C175.246 23.8907 175.673 23.8 176.123 23.6187V20.2867C175.374 20.4529 174.796 20.6342 174.392 20.8307C174.002 21.0271 173.732 21.2538 173.582 21.5107C173.432 21.7676 173.357 22.0849 173.357 22.4627ZM180.298 25.5V25.1373L181.805 24.412V17.5213L180.366 16.592V16.32L184.459 14.9373H184.728L184.931 16.6147H185.043C185.568 16.0858 186.078 15.6778 186.572 15.3907C187.067 15.0884 187.659 14.9373 188.349 14.9373C189.083 14.9373 189.713 15.096 190.238 15.4133C190.762 15.7307 191.107 16.2067 191.272 16.8413H191.362C191.932 16.2369 192.472 15.7684 192.981 15.436C193.506 15.1036 194.136 14.9373 194.87 14.9373C195.755 14.9373 196.482 15.1716 197.051 15.64C197.621 16.1084 197.906 16.8036 197.906 17.7253V24.412L199.39 25.1373V25.5H193.588V25.1373L194.735 24.412V18.6547C194.735 18.1258 194.585 17.7253 194.286 17.4533C194.001 17.1662 193.626 17.0227 193.161 17.0227C192.831 17.0227 192.509 17.0831 192.194 17.204C191.879 17.3249 191.61 17.4987 191.385 17.7253V24.412L192.509 25.1373V25.5H187.112V25.1373L188.214 24.412V18.6547C188.214 18.1258 188.064 17.7253 187.764 17.4533C187.479 17.1662 187.105 17.0227 186.64 17.0227C186.37 17.0227 186.078 17.0756 185.763 17.1813C185.448 17.2871 185.178 17.4307 184.953 17.612V24.412L186.033 25.1373V25.5H180.298ZM202.031 12.6933C201.551 12.6933 201.154 12.5422 200.839 12.24C200.539 11.9227 200.389 11.5298 200.389 11.0613C200.389 10.5778 200.539 10.1849 200.839 9.88267C201.154 9.56533 201.551 9.40667 202.031 9.40667C202.51 9.40667 202.9 9.56533 203.2 9.88267C203.515 10.1849 203.672 10.5778 203.672 11.0613C203.672 11.5298 203.515 11.9227 203.2 12.24C202.9 12.5422 202.51 12.6933 202.031 12.6933ZM198.995 25.5V25.1373L200.501 24.412V17.5213L199.062 16.456V16.184L203.402 14.9373H203.672V24.412L204.999 25.1373V25.5H198.995ZM204.82 25.5V25.1373L206.327 24.412V11.084L204.887 10.0187V9.74667L209.227 8.5H209.497V24.412L210.824 25.1373V25.5H204.82ZM216.09 25.7267C215.025 25.7267 214.088 25.4849 213.279 25.0013C212.469 24.5027 211.84 23.8453 211.39 23.0293C210.94 22.2133 210.715 21.3142 210.715 20.332C210.715 19.3347 210.94 18.428 211.39 17.612C211.84 16.796 212.469 16.1462 213.279 15.6627C214.088 15.1791 215.025 14.9373 216.09 14.9373C217.154 14.9373 218.084 15.1791 218.878 15.6627C219.688 16.1462 220.317 16.796 220.767 17.612C221.217 18.428 221.442 19.3347 221.442 20.332C221.442 21.3142 221.217 22.2133 220.767 23.0293C220.317 23.8453 219.688 24.5027 218.878 25.0013C218.084 25.4849 217.154 25.7267 216.09 25.7267ZM216.337 24.616C216.772 24.616 217.124 24.4422 217.394 24.0947C217.679 23.732 217.881 23.256 218.001 22.6667C218.136 22.0773 218.204 21.4502 218.204 20.7853C218.204 19.9693 218.121 19.1987 217.956 18.4733C217.806 17.748 217.559 17.1587 217.214 16.7053C216.884 16.252 216.442 16.0253 215.887 16.0253C215.438 16.0253 215.07 16.2067 214.786 16.5693C214.501 16.9169 214.291 17.3853 214.156 17.9747C214.021 18.5489 213.954 19.176 213.954 19.856C213.954 20.6871 214.036 21.4653 214.201 22.1907C214.366 22.9009 214.621 23.4827 214.965 23.936C215.325 24.3893 215.783 24.616 216.337 24.616Z" fill="#3AA2B2"/>
<path d="M20.5763 33.2546C29.4943 31.172 35.0489 22.1965 32.9828 13.2074C30.9167 4.21827 22.0123 -1.38061 13.0942 0.701967C4.17616 2.78455 -1.37845 11.76 0.687664 20.7491C2.75377 29.7383 11.6582 35.3372 20.5763 33.2546Z" fill="#ED9D9D" stroke="#376D6D" stroke-miterlimit="10" stroke-linecap="round" stroke-linejoin="round"/>
<path d="M15.0444 9.63071C13.7774 9.25826 12.2994 9.36468 11.138 10.0564C9.97675 10.7481 9.18494 12.0783 9.18494 13.4085C9.18494 14.7919 9.92399 16.0157 10.5574 17.2394C11.4548 18.9953 12.0882 20.8576 12.5105 22.7731C12.6689 23.4117 12.7745 24.0501 13.144 24.5822C13.5135 25.1143 14.2525 25.4335 14.7804 25.1143C15.5194 24.7418 15.7305 23.4648 16.5752 23.518C16.9975 23.518 17.3142 23.8905 17.5253 24.263C17.7365 24.6354 17.8948 25.061 18.2644 25.3271C18.6338 25.5931 19.1617 25.5931 19.584 25.4335C20.0063 25.2207 20.3231 24.9014 20.587 24.4758C21.326 23.3052 21.4316 21.8154 22.065 20.5916C22.3817 20.0063 22.804 19.421 23.1736 18.8889C24.0182 17.6651 24.6516 16.3349 24.8627 14.8451C25.0739 13.4085 24.7044 11.8123 23.8071 10.6949C22.8569 9.57754 21.2732 8.99222 19.9008 9.41788C19.1617 9.68388 18.4227 10.3224 17.6309 10.4289C16.7863 10.482 15.889 9.89676 15.0444 9.63071Z" fill="#FEFEFE" stroke="#376D6D" stroke-miterlimit="10" stroke-linecap="round" stroke-linejoin="round"/>
</g>
<defs>
<clipPath id="clip0_138_1217">
<rect width="223" height="34" fill="white"/>
</clipPath>
</defs>
</svg>
